<svg id="visual" viewBox="0 0 900 600" width="900" height="600" xmlns="http://www.w3.org/2000/svg" xmlns:xlink="http://www.w3.org/1999/xlink" version="1.1"><g stroke-width="1" stroke-linejoin="bevel"><path d="M472 328L379.7 324L430 365Z" fill="#297ea6" stroke="#297ea6"></path><path d="M472 328L455 261L379.7 324Z" fill="#112e42" stroke="#112e42"></path><path d="M406.7 384L422 383L430 365Z" fill="#15384f" stroke="#15384f"></path><path d="M430 365L505.3 418L472 328Z" fill="#0c2435" stroke="#0c2435"></path><path d="M379.7 324L406.7 384L430 365Z" fill="#112e42" stroke="#112e42"></path><path d="M472 328L477.3 270L455 261Z" fill="#00101c" stroke="#00101c"></path><path d="M360.4 380L388.7 396L406.7 384Z" fill="#112e42" stroke="#112e42"></path><path d="M406.7 384L388.7 396L422 383Z" fill="#112e42" stroke="#112e42"></path><path d="M379.7 324L360.4 380L406.7 384Z" fill="#246688" stroke="#246688"></path><path d="M312.4 261L329.4 331L379.7 324Z" fill="#297ea6" stroke="#297ea6"></path><path d="M379.7 324L329.4 331L360.4 380Z" fill="#246688" stroke="#246688"></path><path d="M436 157L377.7 228L455 261Z" fill="#081a28" stroke="#081a28"></path><path d="M455 261L377.7 228L379.7 324Z" fill="#246688" stroke="#246688"></path><path d="M574.6 275L489.3 227L477.3 270Z" fill="#00101c" stroke="#00101c"></path><path d="M477.3 270L489.3 227L455 261Z" fill="#205a7a" stroke="#205a7a"></path><path d="M455 453L505.3 418L422 383Z" fill="#0c2435" stroke="#0c2435"></path><path d="M422 383L505.3 418L430 365Z" fill="#15384f" stroke="#15384f"></path><path d="M472 328L552.3 351L477.3 270Z" fill="#00101c" stroke="#00101c"></path><path d="M377.7 228L312.4 261L379.7 324Z" fill="#297ea6" stroke="#297ea6"></path><path d="M505.3 418L552.3 351L472 328Z" fill="#246688" stroke="#246688"></path><path d="M388.7 486L455 453L388.7 396Z" fill="#15384f" stroke="#15384f"></path><path d="M388.7 396L455 453L422 383Z" fill="#246688" stroke="#246688"></path><path d="M505.3 418L572.6 362L552.3 351Z" fill="#0c2435" stroke="#0c2435"></path><path d="M552.3 351L574.6 275L477.3 270Z" fill="#205a7a" stroke="#205a7a"></path><path d="M613.6 325L574.6 275L552.3 351Z" fill="#297ea6" stroke="#297ea6"></path><path d="M574.6 275L509.3 181L489.3 227Z" fill="#277297" stroke="#277297"></path><path d="M489.3 227L436 157L455 261Z" fill="#15384f" stroke="#15384f"></path><path d="M455 155L436 157L489.3 227Z" fill="#205a7a" stroke="#205a7a"></path><path d="M303.4 158L274.1 263L312.4 261Z" fill="#246688" stroke="#246688"></path><path d="M303.4 158L312.4 261L377.7 228Z" fill="#081a28" stroke="#081a28"></path><path d="M312.4 261L274.1 263L329.4 331Z" fill="#1d4e6b" stroke="#1d4e6b"></path><path d="M329.4 331L268.1 425L360.4 380Z" fill="#277297" stroke="#277297"></path><path d="M455 453L508.3 461L505.3 418Z" fill="#112e42" stroke="#112e42"></path><path d="M505.3 418L602.9 412L572.6 362Z" fill="#00101c" stroke="#00101c"></path><path d="M509.3 181L455 155L489.3 227Z" fill="#277297" stroke="#277297"></path><path d="M274.1 263L261.1 339L329.4 331Z" fill="#081a28" stroke="#081a28"></path><path d="M333.4 481L388.7 486L388.7 396Z" fill="#15384f" stroke="#15384f"></path><path d="M333.4 481L388.7 396L360.4 380Z" fill="#1d4e6b" stroke="#1d4e6b"></path><path d="M499.3 511L538.6 491L508.3 461Z" fill="#277297" stroke="#277297"></path><path d="M388.7 119L366.7 150L436 157Z" fill="#00101c" stroke="#00101c"></path><path d="M436 157L366.7 150L377.7 228Z" fill="#205a7a" stroke="#205a7a"></path><path d="M285.4 449L333.4 481L360.4 380Z" fill="#277297" stroke="#277297"></path><path d="M628.9 331L613.6 325L572.6 362Z" fill="#112e42" stroke="#112e42"></path><path d="M572.6 362L613.6 325L552.3 351Z" fill="#297ea6" stroke="#297ea6"></path><path d="M600.6 152L486.3 131L509.3 181Z" fill="#081a28" stroke="#081a28"></path><path d="M261.1 339L268.1 425L329.4 331Z" fill="#15384f" stroke="#15384f"></path><path d="M268.1 425L285.4 449L360.4 380Z" fill="#0c2435" stroke="#0c2435"></path><path d="M274.1 263L231.9 326L261.1 339Z" fill="#0c2435" stroke="#0c2435"></path><path d="M261.1 339L203.9 381L268.1 425Z" fill="#00101c" stroke="#00101c"></path><path d="M611.6 204L509.3 181L574.6 275Z" fill="#277297" stroke="#277297"></path><path d="M509.3 181L486.3 131L455 155Z" fill="#15384f" stroke="#15384f"></path><path d="M421 65L388.7 119L436 157Z" fill="#00101c" stroke="#00101c"></path><path d="M595.6 439L602.9 412L505.3 418Z" fill="#1d4e6b" stroke="#1d4e6b"></path><path d="M281.1 133L303.4 158L292.4 100Z" fill="#15384f" stroke="#15384f"></path><path d="M366.7 150L303.4 158L377.7 228Z" fill="#112e42" stroke="#112e42"></path><path d="M221.9 272L223.1 323L231.9 326Z" fill="#112e42" stroke="#112e42"></path><path d="M421 65L436 157L455 155Z" fill="#297ea6" stroke="#297ea6"></path><path d="M602.9 412L628.9 331L572.6 362Z" fill="#246688" stroke="#246688"></path><path d="M643.9 217L611.6 204L574.6 275Z" fill="#1d4e6b" stroke="#1d4e6b"></path><path d="M221.9 272L231.9 326L274.1 263Z" fill="#277297" stroke="#277297"></path><path d="M231.9 326L203.9 381L261.1 339Z" fill="#297ea6" stroke="#297ea6"></path><path d="M499.3 511L508.3 461L455 453Z" fill="#19435d" stroke="#19435d"></path><path d="M508.3 461L595.6 439L505.3 418Z" fill="#277297" stroke="#277297"></path><path d="M414 527L499.3 511L455 453Z" fill="#081a28" stroke="#081a28"></path><path d="M414 527L455 453L388.7 486Z" fill="#1d4e6b" stroke="#1d4e6b"></path><path d="M538.6 491L595.6 439L508.3 461Z" fill="#277297" stroke="#277297"></path><path d="M687.1 366L679.9 332L628.9 331Z" fill="#19435d" stroke="#19435d"></path><path d="M356.4 531L414 527L388.7 486Z" fill="#0c2435" stroke="#0c2435"></path><path d="M208.9 201L221.9 272L274.1 263Z" fill="#1d4e6b" stroke="#1d4e6b"></path><path d="M643.9 217L574.6 275L613.6 325Z" fill="#15384f" stroke="#15384f"></path><path d="M270.1 551L356.4 531L333.4 481Z" fill="#00101c" stroke="#00101c"></path><path d="M333.4 481L356.4 531L388.7 486Z" fill="#00101c" stroke="#00101c"></path><path d="M611.6 204L608.9 189L509.3 181Z" fill="#15384f" stroke="#15384f"></path><path d="M158.9 385L203.9 381L223.1 323Z" fill="#205a7a" stroke="#205a7a"></path><path d="M223.1 323L203.9 381L231.9 326Z" fill="#081a28" stroke="#081a28"></path><path d="M268.1 425L219.9 452L285.4 449Z" fill="#19435d" stroke="#19435d"></path><path d="M285.4 449L270.1 551L333.4 481Z" fill="#297ea6" stroke="#297ea6"></path><path d="M292.4 100L303.4 158L366.7 150Z" fill="#112e42" stroke="#112e42"></path><path d="M225.1 172L208.9 201L274.1 263Z" fill="#246688" stroke="#246688"></path><path d="M628.9 331L643.9 217L613.6 325Z" fill="#00101c" stroke="#00101c"></path><path d="M611.6 204L643.9 217L608.9 189Z" fill="#112e42" stroke="#112e42"></path><path d="M608.9 189L600.6 152L509.3 181Z" fill="#081a28" stroke="#081a28"></path><path d="M650.9 148L600.6 152L608.9 189Z" fill="#246688" stroke="#246688"></path><path d="M219.1 451L219.9 452L268.1 425Z" fill="#15384f" stroke="#15384f"></path><path d="M203.9 381L219.1 451L268.1 425Z" fill="#277297" stroke="#277297"></path><path d="M225.1 172L274.1 263L303.4 158Z" fill="#297ea6" stroke="#297ea6"></path><path d="M123.6 311L158.9 385L223.1 323Z" fill="#081a28" stroke="#081a28"></path><path d="M281.1 133L225.1 172L303.4 158Z" fill="#1d4e6b" stroke="#1d4e6b"></path><path d="M413.7 42L421 65L434 0Z" fill="#081a28" stroke="#081a28"></path><path d="M486.3 131L421 65L455 155Z" fill="#112e42" stroke="#112e42"></path><path d="M388.7 119L292.4 100L366.7 150Z" fill="#112e42" stroke="#112e42"></path><path d="M281.4 600L381.7 568L356.4 531Z" fill="#205a7a" stroke="#205a7a"></path><path d="M356.4 531L381.7 568L414 527Z" fill="#1d4e6b" stroke="#1d4e6b"></path><path d="M484.3 600L552.6 561L499.3 511Z" fill="#277297" stroke="#277297"></path><path d="M678.1 391L628.9 331L602.9 412Z" fill="#00101c" stroke="#00101c"></path><path d="M628.9 331L679.9 332L643.9 217Z" fill="#00101c" stroke="#00101c"></path><path d="M359.4 23L292.4 100L388.7 119Z" fill="#246688" stroke="#246688"></path><path d="M281.1 133L265.1 85L225.1 172Z" fill="#0c2435" stroke="#0c2435"></path><path d="M622.9 519L678.1 391L595.6 439Z" fill="#0c2435" stroke="#0c2435"></path><path d="M595.6 439L678.1 391L602.9 412Z" fill="#112e42" stroke="#112e42"></path><path d="M678.1 391L687.1 366L628.9 331Z" fill="#19435d" stroke="#19435d"></path><path d="M552.6 561L602.9 525L538.6 491Z" fill="#081a28" stroke="#081a28"></path><path d="M538.6 491L602.9 525L595.6 439Z" fill="#277297" stroke="#277297"></path><path d="M552.6 561L538.6 491L499.3 511Z" fill="#277297" stroke="#277297"></path><path d="M462 600L499.3 511L414 527Z" fill="#246688" stroke="#246688"></path><path d="M123.6 311L223.1 323L221.9 272Z" fill="#112e42" stroke="#112e42"></path><path d="M203.9 381L158.9 385L219.1 451Z" fill="#1d4e6b" stroke="#1d4e6b"></path><path d="M230.9 537L285.4 449L219.9 452Z" fill="#00101c" stroke="#00101c"></path><path d="M493.3 0L421 65L486.3 131Z" fill="#0c2435" stroke="#0c2435"></path><path d="M421 65L359.4 23L388.7 119Z" fill="#15384f" stroke="#15384f"></path><path d="M230.9 537L219.9 452L110.6 455Z" fill="#19435d" stroke="#19435d"></path><path d="M230.9 537L270.1 551L285.4 449Z" fill="#112e42" stroke="#112e42"></path><path d="M633.9 600L622.9 519L602.9 525Z" fill="#297ea6" stroke="#297ea6"></path><path d="M602.9 525L622.9 519L595.6 439Z" fill="#112e42" stroke="#112e42"></path><path d="M696.1 139L650.9 148L643.9 217Z" fill="#246688" stroke="#246688"></path><path d="M643.9 217L650.9 148L608.9 189Z" fill="#112e42" stroke="#112e42"></path><path d="M600.6 152L554.6 28L486.3 131Z" fill="#0c2435" stroke="#0c2435"></path><path d="M735.1 270L643.9 217L679.9 332Z" fill="#297ea6" stroke="#297ea6"></path><path d="M161.9 140L140.6 235L208.9 201Z" fill="#081a28" stroke="#081a28"></path><path d="M292.4 100L265.1 85L281.1 133Z" fill="#246688" stroke="#246688"></path><path d="M322.4 0L265.1 85L292.4 100Z" fill="#081a28" stroke="#081a28"></path><path d="M380.7 600L462 600L381.7 568Z" fill="#15384f" stroke="#15384f"></path><path d="M381.7 568L462 600L414 527Z" fill="#112e42" stroke="#112e42"></path><path d="M281.4 600L380.7 600L381.7 568Z" fill="#0c2435" stroke="#0c2435"></path><path d="M462 600L484.3 600L499.3 511Z" fill="#246688" stroke="#246688"></path><path d="M110.6 455L219.9 452L219.1 451Z" fill="#19435d" stroke="#19435d"></path><path d="M270.1 551L281.4 600L356.4 531Z" fill="#00101c" stroke="#00101c"></path><path d="M161.9 140L208.9 201L225.1 172Z" fill="#112e42" stroke="#112e42"></path><path d="M208.9 201L140.6 235L221.9 272Z" fill="#081a28" stroke="#081a28"></path><path d="M140.6 235L123.6 311L221.9 272Z" fill="#297ea6" stroke="#297ea6"></path><path d="M158.9 385L110.6 455L219.1 451Z" fill="#081a28" stroke="#081a28"></path><path d="M413.7 42L359.4 23L421 65Z" fill="#19435d" stroke="#19435d"></path><path d="M484.3 600L558.6 600L552.6 561Z" fill="#081a28" stroke="#081a28"></path><path d="M552.6 561L633.9 600L602.9 525Z" fill="#1d4e6b" stroke="#1d4e6b"></path><path d="M123.6 311L115.6 351L158.9 385Z" fill="#081a28" stroke="#081a28"></path><path d="M742.1 326L679.9 332L687.1 366Z" fill="#205a7a" stroke="#205a7a"></path><path d="M744.4 322L735.1 270L679.9 332Z" fill="#112e42" stroke="#112e42"></path><path d="M742.1 326L687.1 366L799.4 414Z" fill="#297ea6" stroke="#297ea6"></path><path d="M799.4 414L687.1 366L678.1 391Z" fill="#00101c" stroke="#00101c"></path><path d="M271.1 600L281.4 600L270.1 551Z" fill="#081a28" stroke="#081a28"></path><path d="M629.9 63L554.6 28L600.6 152Z" fill="#1d4e6b" stroke="#1d4e6b"></path><path d="M413.7 42L434 0L359.4 23Z" fill="#0c2435" stroke="#0c2435"></path><path d="M742.1 326L744.4 322L679.9 332Z" fill="#19435d" stroke="#19435d"></path><path d="M493.3 0L434 0L421 65Z" fill="#15384f" stroke="#15384f"></path><path d="M735.1 270L739.4 261L643.9 217Z" fill="#297ea6" stroke="#297ea6"></path><path d="M768.4 308L739.4 261L735.1 270Z" fill="#277297" stroke="#277297"></path><path d="M151.6 111L161.9 140L265.1 85Z" fill="#246688" stroke="#246688"></path><path d="M265.1 85L161.9 140L225.1 172Z" fill="#277297" stroke="#277297"></path><path d="M554.6 28L543.3 20L486.3 131Z" fill="#0c2435" stroke="#0c2435"></path><path d="M230.9 537L271.1 600L270.1 551Z" fill="#297ea6" stroke="#297ea6"></path><path d="M719.1 145L696.1 139L643.9 217Z" fill="#205a7a" stroke="#205a7a"></path><path d="M650.9 148L629.9 63L600.6 152Z" fill="#277297" stroke="#277297"></path><path d="M543.3 20L493.3 0L486.3 131Z" fill="#0c2435" stroke="#0c2435"></path><path d="M554.6 28L540.6 0L543.3 20Z" fill="#1d4e6b" stroke="#1d4e6b"></path><path d="M684.1 79L629.9 63L650.9 148Z" fill="#19435d" stroke="#19435d"></path><path d="M434 0L351.7 0L359.4 23Z" fill="#277297" stroke="#277297"></path><path d="M359.4 23L322.4 0L292.4 100Z" fill="#297ea6" stroke="#297ea6"></path><path d="M78.3 387L103.6 405L115.6 351Z" fill="#1d4e6b" stroke="#1d4e6b"></path><path d="M115.6 351L103.6 405L158.9 385Z" fill="#19435d" stroke="#19435d"></path><path d="M230.9 537L179.9 600L271.1 600Z" fill="#1d4e6b" stroke="#1d4e6b"></path><path d="M351.7 0L322.4 0L359.4 23Z" fill="#246688" stroke="#246688"></path><path d="M658.9 0L540.6 0L554.6 28Z" fill="#112e42" stroke="#112e42"></path><path d="M543.3 20L540.6 0L493.3 0Z" fill="#297ea6" stroke="#297ea6"></path><path d="M739.4 261L719.1 145L643.9 217Z" fill="#277297" stroke="#277297"></path><path d="M696.1 139L684.1 79L650.9 148Z" fill="#15384f" stroke="#15384f"></path><path d="M742.1 326L768.4 308L744.4 322Z" fill="#277297" stroke="#277297"></path><path d="M744.4 322L768.4 308L735.1 270Z" fill="#246688" stroke="#246688"></path><path d="M739.4 261L792.4 199L719.1 145Z" fill="#297ea6" stroke="#297ea6"></path><path d="M799.4 414L768.4 308L742.1 326Z" fill="#1d4e6b" stroke="#1d4e6b"></path><path d="M103.6 405L110.6 455L158.9 385Z" fill="#205a7a" stroke="#205a7a"></path><path d="M213.9 42L151.6 111L265.1 85Z" fill="#1d4e6b" stroke="#1d4e6b"></path><path d="M161.9 140L107.6 165L140.6 235Z" fill="#246688" stroke="#246688"></path><path d="M140.6 235L28.3 276L123.6 311Z" fill="#00101c" stroke="#00101c"></path><path d="M34.3 316L78.3 387L115.6 351Z" fill="#00101c" stroke="#00101c"></path><path d="M268.1 0L213.9 42L265.1 85Z" fill="#081a28" stroke="#081a28"></path><path d="M558.6 600L633.9 600L552.6 561Z" fill="#19435d" stroke="#19435d"></path><path d="M622.9 519L743.1 492L678.1 391Z" fill="#19435d" stroke="#19435d"></path><path d="M719.1 145L684.1 79L696.1 139Z" fill="#15384f" stroke="#15384f"></path><path d="M629.9 63L658.9 0L554.6 28Z" fill="#15384f" stroke="#15384f"></path><path d="M151.6 111L107.6 165L161.9 140Z" fill="#112e42" stroke="#112e42"></path><path d="M34.3 316L115.6 351L123.6 311Z" fill="#19435d" stroke="#19435d"></path><path d="M103.6 405L64.3 424L110.6 455Z" fill="#19435d" stroke="#19435d"></path><path d="M322.4 0L268.1 0L265.1 85Z" fill="#277297" stroke="#277297"></path><path d="M743.4 529L743.1 492L622.9 519Z" fill="#15384f" stroke="#15384f"></path><path d="M75.3 519L159.6 577L110.6 455Z" fill="#0c2435" stroke="#0c2435"></path><path d="M110.6 455L159.6 577L230.9 537Z" fill="#112e42" stroke="#112e42"></path><path d="M159.6 577L179.9 600L230.9 537Z" fill="#19435d" stroke="#19435d"></path><path d="M0 391L64.3 424L78.3 387Z" fill="#297ea6" stroke="#297ea6"></path><path d="M78.3 387L64.3 424L103.6 405Z" fill="#205a7a" stroke="#205a7a"></path><path d="M743.1 540L743.4 529L622.9 519Z" fill="#0c2435" stroke="#0c2435"></path><path d="M743.1 492L799.4 414L678.1 391Z" fill="#277297" stroke="#277297"></path><path d="M768.4 308L792.4 199L739.4 261Z" fill="#00101c" stroke="#00101c"></path><path d="M719.1 145L800.4 73L684.1 79Z" fill="#19435d" stroke="#19435d"></path><path d="M867.7 282L792.4 199L768.4 308Z" fill="#0c2435" stroke="#0c2435"></path><path d="M781.4 487L799.4 414L743.1 492Z" fill="#277297" stroke="#277297"></path><path d="M704.1 600L743.1 540L622.9 519Z" fill="#19435d" stroke="#19435d"></path><path d="M743.4 529L781.4 487L743.1 492Z" fill="#277297" stroke="#277297"></path><path d="M0 135L50.3 211L107.6 165Z" fill="#297ea6" stroke="#297ea6"></path><path d="M107.6 165L50.3 211L140.6 235Z" fill="#277297" stroke="#277297"></path><path d="M76.3 94L107.6 165L151.6 111Z" fill="#246688" stroke="#246688"></path><path d="M28.3 276L34.3 316L123.6 311Z" fill="#00101c" stroke="#00101c"></path><path d="M816.7 500L781.4 487L743.4 529Z" fill="#0c2435" stroke="#0c2435"></path><path d="M268.1 0L194.9 0L213.9 42Z" fill="#19435d" stroke="#19435d"></path><path d="M213.9 42L130.6 38L151.6 111Z" fill="#081a28" stroke="#081a28"></path><path d="M792.4 199L782.4 151L719.1 145Z" fill="#297ea6" stroke="#297ea6"></path><path d="M720.1 0L658.9 0L684.1 79Z" fill="#15384f" stroke="#15384f"></path><path d="M684.1 79L658.9 0L629.9 63Z" fill="#246688" stroke="#246688"></path><path d="M633.9 600L704.1 600L622.9 519Z" fill="#112e42" stroke="#112e42"></path><path d="M816.7 500L819.7 445L781.4 487Z" fill="#081a28" stroke="#081a28"></path><path d="M50.3 211L28.3 276L140.6 235Z" fill="#1d4e6b" stroke="#1d4e6b"></path><path d="M56.3 508L75.3 519L110.6 455Z" fill="#1d4e6b" stroke="#1d4e6b"></path><path d="M159.6 577L116.6 600L179.9 600Z" fill="#081a28" stroke="#081a28"></path><path d="M56.3 508L110.6 455L64.3 424Z" fill="#205a7a" stroke="#205a7a"></path><path d="M194.9 0L130.6 38L213.9 42Z" fill="#112e42" stroke="#112e42"></path><path d="M816.7 500L743.4 529L743.1 540Z" fill="#205a7a" stroke="#205a7a"></path><path d="M781.4 487L819.7 445L799.4 414Z" fill="#297ea6" stroke="#297ea6"></path><path d="M799.4 414L835.7 395L768.4 308Z" fill="#0c2435" stroke="#0c2435"></path><path d="M130.6 38L76.3 94L151.6 111Z" fill="#277297" stroke="#277297"></path><path d="M0 289L34.3 316L28.3 276Z" fill="#1d4e6b" stroke="#1d4e6b"></path><path d="M0 500L56.3 508L64.3 424Z" fill="#1d4e6b" stroke="#1d4e6b"></path><path d="M75.3 519L116.6 600L159.6 577Z" fill="#246688" stroke="#246688"></path><path d="M0 338L78.3 387L34.3 316Z" fill="#277297" stroke="#277297"></path><path d="M819.7 445L835.7 395L799.4 414Z" fill="#081a28" stroke="#081a28"></path><path d="M792.4 199L819.7 156L782.4 151Z" fill="#081a28" stroke="#081a28"></path><path d="M78.3 600L116.6 600L75.3 519Z" fill="#0c2435" stroke="#0c2435"></path><path d="M849.7 164L819.7 156L792.4 199Z" fill="#246688" stroke="#246688"></path><path d="M800.4 73L720.1 0L684.1 79Z" fill="#1d4e6b" stroke="#1d4e6b"></path><path d="M0 289L28.3 276L0 212Z" fill="#297ea6" stroke="#297ea6"></path><path d="M0 289L0 338L34.3 316Z" fill="#205a7a" stroke="#205a7a"></path><path d="M0 212L28.3 276L50.3 211Z" fill="#0c2435" stroke="#0c2435"></path><path d="M900 395L900 392L835.7 395Z" fill="#15384f" stroke="#15384f"></path><path d="M842.7 525L816.7 500L743.1 540Z" fill="#0c2435" stroke="#0c2435"></path><path d="M0 338L0 391L78.3 387Z" fill="#0c2435" stroke="#0c2435"></path><path d="M800.4 73L719.1 145L782.4 151Z" fill="#15384f" stroke="#15384f"></path><path d="M0 208L0 212L50.3 211Z" fill="#205a7a" stroke="#205a7a"></path><path d="M0 135L0 208L50.3 211Z" fill="#15384f" stroke="#15384f"></path><path d="M130.6 38L38.3 37L76.3 94Z" fill="#0c2435" stroke="#0c2435"></path><path d="M76.3 94L0 135L107.6 165Z" fill="#205a7a" stroke="#205a7a"></path><path d="M194.9 0L121.6 0L130.6 38Z" fill="#1d4e6b" stroke="#1d4e6b"></path><path d="M900 324L867.7 282L835.7 395Z" fill="#1d4e6b" stroke="#1d4e6b"></path><path d="M835.7 395L867.7 282L768.4 308Z" fill="#15384f" stroke="#15384f"></path><path d="M867.7 282L859.7 209L792.4 199Z" fill="#1d4e6b" stroke="#1d4e6b"></path><path d="M819.7 156L800.4 73L782.4 151Z" fill="#246688" stroke="#246688"></path><path d="M900 100L800.4 73L819.7 156Z" fill="#19435d" stroke="#19435d"></path><path d="M0 528L75.3 519L56.3 508Z" fill="#277297" stroke="#277297"></path><path d="M0 528L78.3 600L75.3 519Z" fill="#112e42" stroke="#112e42"></path><path d="M704.1 600L775.4 600L743.1 540Z" fill="#112e42" stroke="#112e42"></path><path d="M859.7 209L849.7 164L792.4 199Z" fill="#15384f" stroke="#15384f"></path><path d="M0 391L0 500L64.3 424Z" fill="#1d4e6b" stroke="#1d4e6b"></path><path d="M0 70L0 135L76.3 94Z" fill="#19435d" stroke="#19435d"></path><path d="M775.4 600L842.7 525L743.1 540Z" fill="#112e42" stroke="#112e42"></path><path d="M816.7 500L900 473L819.7 445Z" fill="#297ea6" stroke="#297ea6"></path><path d="M900 392L900 324L835.7 395Z" fill="#081a28" stroke="#081a28"></path><path d="M867.7 282L900 206L859.7 209Z" fill="#0c2435" stroke="#0c2435"></path><path d="M859.7 209L900 162L849.7 164Z" fill="#1d4e6b" stroke="#1d4e6b"></path><path d="M0 500L0 528L56.3 508Z" fill="#081a28" stroke="#081a28"></path><path d="M121.6 0L38.3 37L130.6 38Z" fill="#0c2435" stroke="#0c2435"></path><path d="M900 395L835.7 395L819.7 445Z" fill="#15384f" stroke="#15384f"></path><path d="M900 473L900 395L819.7 445Z" fill="#297ea6" stroke="#297ea6"></path><path d="M900 324L900 206L867.7 282Z" fill="#00101c" stroke="#00101c"></path><path d="M853.7 32L803.4 0L800.4 73Z" fill="#112e42" stroke="#112e42"></path><path d="M38.3 37L0 70L76.3 94Z" fill="#00101c" stroke="#00101c"></path><path d="M853.7 32L800.4 73L900 97Z" fill="#277297" stroke="#277297"></path><path d="M800.4 73L803.4 0L720.1 0Z" fill="#0c2435" stroke="#0c2435"></path><path d="M121.6 0L43.3 0L38.3 37Z" fill="#15384f" stroke="#15384f"></path><path d="M38.3 37L0 0L0 70Z" fill="#00101c" stroke="#00101c"></path><path d="M900 532L900 473L842.7 525Z" fill="#277297" stroke="#277297"></path><path d="M842.7 525L900 473L816.7 500Z" fill="#00101c" stroke="#00101c"></path><path d="M900 206L900 162L859.7 209Z" fill="#19435d" stroke="#19435d"></path><path d="M0 528L0 600L78.3 600Z" fill="#19435d" stroke="#19435d"></path><path d="M775.4 600L854.7 600L842.7 525Z" fill="#0c2435" stroke="#0c2435"></path><path d="M900 100L819.7 156L849.7 164Z" fill="#19435d" stroke="#19435d"></path><path d="M854.7 600L900 532L842.7 525Z" fill="#1d4e6b" stroke="#1d4e6b"></path><path d="M900 162L900 100L849.7 164Z" fill="#15384f" stroke="#15384f"></path><path d="M900 100L900 97L800.4 73Z" fill="#00101c" stroke="#00101c"></path><path d="M43.3 0L0 0L38.3 37Z" fill="#112e42" stroke="#112e42"></path><path d="M900 0L852.7 0L853.7 32Z" fill="#205a7a" stroke="#205a7a"></path><path d="M853.7 32L852.7 0L803.4 0Z" fill="#081a28" stroke="#081a28"></path><path d="M854.7 600L900 600L900 532Z" fill="#297ea6" stroke="#297ea6"></path><path d="M900 97L900 0L853.7 32Z" fill="#00101c" stroke="#00101c"></path></g></svg>