<svg id="visual" viewBox="0 0 900 600" width="900" height="600" xmlns="http://www.w3.org/2000/svg" xmlns:xlink="http://www.w3.org/1999/xlink" version="1.1"><g stroke-width="1" stroke-linejoin="bevel"><path d="M410 339L334 341L397 377Z" fill="#efefef" stroke="#efefef"></path><path d="M410 339L394 280L334 341Z" fill="#ffffff" stroke="#ffffff"></path><path d="M394 280L321 293L334 341Z" fill="#efefef" stroke="#efefef"></path><path d="M222 370L330 437L334 341Z" fill="#e4e4e4" stroke="#e4e4e4"></path><path d="M334 341L330 437L397 377Z" fill="#f4f4f4" stroke="#f4f4f4"></path><path d="M365 460L429 444L397 377Z" fill="#cfcfcf" stroke="#cfcfcf"></path><path d="M397 377L487 411L410 339Z" fill="#cacaca" stroke="#cacaca"></path><path d="M330 437L365 460L397 377Z" fill="#f4f4f4" stroke="#f4f4f4"></path><path d="M429 444L487 411L397 377Z" fill="#e9e9e9" stroke="#e9e9e9"></path><path d="M525 217L433 202L394 280Z" fill="#cacaca" stroke="#cacaca"></path><path d="M330 437L338 489L365 460Z" fill="#e4e4e4" stroke="#e4e4e4"></path><path d="M365 460L453 498L429 444Z" fill="#fafafa" stroke="#fafafa"></path><path d="M433 202L385 196L394 280Z" fill="#ffffff" stroke="#ffffff"></path><path d="M394 280L385 196L321 293Z" fill="#d4d4d4" stroke="#d4d4d4"></path><path d="M223 267L222 370L321 293Z" fill="#e9e9e9" stroke="#e9e9e9"></path><path d="M321 293L222 370L334 341Z" fill="#dfdfdf" stroke="#dfdfdf"></path><path d="M330 437L230 459L338 489Z" fill="#cacaca" stroke="#cacaca"></path><path d="M557 320L394 280L410 339Z" fill="#e4e4e4" stroke="#e4e4e4"></path><path d="M219 242L223 267L274 188Z" fill="#e9e9e9" stroke="#e9e9e9"></path><path d="M343 530L453 498L365 460Z" fill="#dfdfdf" stroke="#dfdfdf"></path><path d="M429 444L453 498L487 411Z" fill="#efefef" stroke="#efefef"></path><path d="M544 471L540 410L487 411Z" fill="#e9e9e9" stroke="#e9e9e9"></path><path d="M487 411L557 320L410 339Z" fill="#cacaca" stroke="#cacaca"></path><path d="M222 370L230 459L330 437Z" fill="#cfcfcf" stroke="#cfcfcf"></path><path d="M366 112L310 174L385 196Z" fill="#cacaca" stroke="#cacaca"></path><path d="M385 196L310 174L321 293Z" fill="#cacaca" stroke="#cacaca"></path><path d="M204 523L343 530L338 489Z" fill="#efefef" stroke="#efefef"></path><path d="M338 489L343 530L365 460Z" fill="#fafafa" stroke="#fafafa"></path><path d="M274 188L223 267L321 293Z" fill="#e9e9e9" stroke="#e9e9e9"></path><path d="M223 267L147 333L222 370Z" fill="#cacaca" stroke="#cacaca"></path><path d="M540 410L557 320L487 411Z" fill="#dfdfdf" stroke="#dfdfdf"></path><path d="M310 174L274 188L321 293Z" fill="#dfdfdf" stroke="#dfdfdf"></path><path d="M525 217L444 173L433 202Z" fill="#dadada" stroke="#dadada"></path><path d="M433 202L444 173L385 196Z" fill="#fafafa" stroke="#fafafa"></path><path d="M557 320L525 217L394 280Z" fill="#ffffff" stroke="#ffffff"></path><path d="M453 498L544 471L487 411Z" fill="#fafafa" stroke="#fafafa"></path><path d="M631 373L595 265L557 320Z" fill="#f4f4f4" stroke="#f4f4f4"></path><path d="M105 288L147 333L223 267Z" fill="#cfcfcf" stroke="#cfcfcf"></path><path d="M222 370L147 432L230 459Z" fill="#dfdfdf" stroke="#dfdfdf"></path><path d="M274 188L187 216L219 242Z" fill="#e4e4e4" stroke="#e4e4e4"></path><path d="M219 242L187 216L223 267Z" fill="#e4e4e4" stroke="#e4e4e4"></path><path d="M232 145L187 216L274 188Z" fill="#cacaca" stroke="#cacaca"></path><path d="M104 350L137 343L105 288Z" fill="#cfcfcf" stroke="#cfcfcf"></path><path d="M147 333L137 343L222 370Z" fill="#dadada" stroke="#dadada"></path><path d="M444 173L366 112L385 196Z" fill="#cacaca" stroke="#cacaca"></path><path d="M310 174L232 145L274 188Z" fill="#ffffff" stroke="#ffffff"></path><path d="M408 76L366 112L444 173Z" fill="#dfdfdf" stroke="#dfdfdf"></path><path d="M557 320L595 265L525 217Z" fill="#dadada" stroke="#dadada"></path><path d="M631 373L557 320L540 410Z" fill="#cacaca" stroke="#cacaca"></path><path d="M137 343L147 432L222 370Z" fill="#dfdfdf" stroke="#dfdfdf"></path><path d="M230 459L204 523L338 489Z" fill="#efefef" stroke="#efefef"></path><path d="M366 112L312 114L310 174Z" fill="#e9e9e9" stroke="#e9e9e9"></path><path d="M147 432L204 523L230 459Z" fill="#dfdfdf" stroke="#dfdfdf"></path><path d="M312 114L232 145L310 174Z" fill="#dfdfdf" stroke="#dfdfdf"></path><path d="M547 547L562 510L544 471Z" fill="#e4e4e4" stroke="#e4e4e4"></path><path d="M544 471L618 423L540 410Z" fill="#dadada" stroke="#dadada"></path><path d="M547 547L544 471L453 498Z" fill="#dadada" stroke="#dadada"></path><path d="M288 600L354 600L343 530Z" fill="#e9e9e9" stroke="#e9e9e9"></path><path d="M343 530L354 600L453 498Z" fill="#dfdfdf" stroke="#dfdfdf"></path><path d="M562 510L618 423L544 471Z" fill="#cacaca" stroke="#cacaca"></path><path d="M595 265L583 196L525 217Z" fill="#dadada" stroke="#dadada"></path><path d="M525 217L524 136L444 173Z" fill="#efefef" stroke="#efefef"></path><path d="M618 423L631 373L540 410Z" fill="#f4f4f4" stroke="#f4f4f4"></path><path d="M595 265L623 180L583 196Z" fill="#fafafa" stroke="#fafafa"></path><path d="M583 196L524 136L525 217Z" fill="#efefef" stroke="#efefef"></path><path d="M562 510L645 451L618 423Z" fill="#cfcfcf" stroke="#cfcfcf"></path><path d="M488 600L547 547L453 498Z" fill="#cacaca" stroke="#cacaca"></path><path d="M204 523L288 600L343 530Z" fill="#dfdfdf" stroke="#dfdfdf"></path><path d="M137 343L104 350L147 432Z" fill="#dfdfdf" stroke="#dfdfdf"></path><path d="M105 288L137 343L147 333Z" fill="#efefef" stroke="#efefef"></path><path d="M475 87L408 76L444 173Z" fill="#efefef" stroke="#efefef"></path><path d="M366 112L346 0L312 114Z" fill="#dadada" stroke="#dadada"></path><path d="M312 114L196 107L232 145Z" fill="#f4f4f4" stroke="#f4f4f4"></path><path d="M96 223L105 288L187 216Z" fill="#ffffff" stroke="#ffffff"></path><path d="M187 216L105 288L223 267Z" fill="#e4e4e4" stroke="#e4e4e4"></path><path d="M354 600L488 600L453 498Z" fill="#dfdfdf" stroke="#dfdfdf"></path><path d="M524 136L475 87L444 173Z" fill="#dadada" stroke="#dadada"></path><path d="M147 432L131 511L204 523Z" fill="#cfcfcf" stroke="#cfcfcf"></path><path d="M204 523L222 600L288 600Z" fill="#fafafa" stroke="#fafafa"></path><path d="M62 419L131 511L147 432Z" fill="#fafafa" stroke="#fafafa"></path><path d="M695 526L645 451L562 510Z" fill="#d4d4d4" stroke="#d4d4d4"></path><path d="M618 423L680 407L631 373Z" fill="#f4f4f4" stroke="#f4f4f4"></path><path d="M186 600L222 600L204 523Z" fill="#e4e4e4" stroke="#e4e4e4"></path><path d="M300 0L196 107L312 114Z" fill="#efefef" stroke="#efefef"></path><path d="M232 145L142 119L187 216Z" fill="#dfdfdf" stroke="#dfdfdf"></path><path d="M710 241L623 180L595 265Z" fill="#e9e9e9" stroke="#e9e9e9"></path><path d="M583 196L613 95L524 136Z" fill="#dfdfdf" stroke="#dfdfdf"></path><path d="M524 136L490 41L475 87Z" fill="#ffffff" stroke="#ffffff"></path><path d="M681 323L595 265L631 373Z" fill="#f4f4f4" stroke="#f4f4f4"></path><path d="M142 119L96 223L187 216Z" fill="#d4d4d4" stroke="#d4d4d4"></path><path d="M0 359L62 419L104 350Z" fill="#dadada" stroke="#dadada"></path><path d="M488 600L540 600L547 547Z" fill="#ffffff" stroke="#ffffff"></path><path d="M547 547L609 600L562 510Z" fill="#fafafa" stroke="#fafafa"></path><path d="M680 407L681 323L631 373Z" fill="#cacaca" stroke="#cacaca"></path><path d="M645 451L680 407L618 423Z" fill="#f4f4f4" stroke="#f4f4f4"></path><path d="M716 393L680 407L751 432Z" fill="#ffffff" stroke="#ffffff"></path><path d="M131 511L186 600L204 523Z" fill="#e9e9e9" stroke="#e9e9e9"></path><path d="M0 359L104 350L0 309Z" fill="#dadada" stroke="#dadada"></path><path d="M104 350L62 419L147 432Z" fill="#cacaca" stroke="#cacaca"></path><path d="M131 511L78 600L186 600Z" fill="#f4f4f4" stroke="#f4f4f4"></path><path d="M196 107L142 119L232 145Z" fill="#efefef" stroke="#efefef"></path><path d="M475 87L490 41L408 76Z" fill="#dfdfdf" stroke="#dfdfdf"></path><path d="M408 76L346 0L366 112Z" fill="#ffffff" stroke="#ffffff"></path><path d="M196 107L128 107L142 119Z" fill="#cacaca" stroke="#cacaca"></path><path d="M613 95L490 41L524 136Z" fill="#e4e4e4" stroke="#e4e4e4"></path><path d="M194 0L128 107L196 107Z" fill="#ffffff" stroke="#ffffff"></path><path d="M142 119L93 112L96 223Z" fill="#efefef" stroke="#efefef"></path><path d="M540 600L609 600L547 547Z" fill="#ffffff" stroke="#ffffff"></path><path d="M720 492L680 407L645 451Z" fill="#fafafa" stroke="#fafafa"></path><path d="M680 407L716 393L681 323Z" fill="#fafafa" stroke="#fafafa"></path><path d="M635 87L613 95L623 180Z" fill="#fafafa" stroke="#fafafa"></path><path d="M421 0L346 0L408 76Z" fill="#dfdfdf" stroke="#dfdfdf"></path><path d="M710 241L595 265L681 323Z" fill="#ffffff" stroke="#ffffff"></path><path d="M623 180L613 95L583 196Z" fill="#cacaca" stroke="#cacaca"></path><path d="M62 419L69 520L131 511Z" fill="#cacaca" stroke="#cacaca"></path><path d="M532 0L421 0L490 41Z" fill="#ffffff" stroke="#ffffff"></path><path d="M490 41L421 0L408 76Z" fill="#f4f4f4" stroke="#f4f4f4"></path><path d="M767 335L710 241L681 323Z" fill="#dadada" stroke="#dadada"></path><path d="M346 0L300 0L312 114Z" fill="#ffffff" stroke="#ffffff"></path><path d="M98 0L93 112L128 107Z" fill="#cfcfcf" stroke="#cfcfcf"></path><path d="M128 107L93 112L142 119Z" fill="#f4f4f4" stroke="#f4f4f4"></path><path d="M0 309L104 350L105 288Z" fill="#cfcfcf" stroke="#cfcfcf"></path><path d="M609 600L695 526L562 510Z" fill="#fafafa" stroke="#fafafa"></path><path d="M691 129L635 87L623 180Z" fill="#cfcfcf" stroke="#cfcfcf"></path><path d="M613 95L532 0L490 41Z" fill="#f4f4f4" stroke="#f4f4f4"></path><path d="M0 309L105 288L0 233Z" fill="#dadada" stroke="#dadada"></path><path d="M62 419L0 418L69 520Z" fill="#fafafa" stroke="#fafafa"></path><path d="M0 233L105 288L96 223Z" fill="#cacaca" stroke="#cacaca"></path><path d="M695 526L720 492L645 451Z" fill="#efefef" stroke="#efefef"></path><path d="M716 393L767 335L681 323Z" fill="#efefef" stroke="#efefef"></path><path d="M0 359L0 418L62 419Z" fill="#e4e4e4" stroke="#e4e4e4"></path><path d="M93 112L47 147L96 223Z" fill="#efefef" stroke="#efefef"></path><path d="M586 0L532 0L613 95Z" fill="#e4e4e4" stroke="#e4e4e4"></path><path d="M710 241L691 129L623 180Z" fill="#f4f4f4" stroke="#f4f4f4"></path><path d="M635 87L586 0L613 95Z" fill="#e4e4e4" stroke="#e4e4e4"></path><path d="M609 600L666 600L695 526Z" fill="#e9e9e9" stroke="#e9e9e9"></path><path d="M695 526L728 600L720 492Z" fill="#dadada" stroke="#dadada"></path><path d="M0 564L78 600L69 520Z" fill="#f4f4f4" stroke="#f4f4f4"></path><path d="M69 520L78 600L131 511Z" fill="#e4e4e4" stroke="#e4e4e4"></path><path d="M842 410L751 432L839 452Z" fill="#fafafa" stroke="#fafafa"></path><path d="M720 492L751 432L680 407Z" fill="#fafafa" stroke="#fafafa"></path><path d="M710 241L768 220L691 129Z" fill="#fafafa" stroke="#fafafa"></path><path d="M47 147L0 233L96 223Z" fill="#f4f4f4" stroke="#f4f4f4"></path><path d="M0 88L0 167L47 147Z" fill="#fafafa" stroke="#fafafa"></path><path d="M300 0L194 0L196 107Z" fill="#ffffff" stroke="#ffffff"></path><path d="M751 432L767 335L716 393Z" fill="#cacaca" stroke="#cacaca"></path><path d="M655 0L586 0L635 87Z" fill="#ffffff" stroke="#ffffff"></path><path d="M47 147L0 167L0 233Z" fill="#dfdfdf" stroke="#dfdfdf"></path><path d="M0 88L47 147L93 112Z" fill="#dfdfdf" stroke="#dfdfdf"></path><path d="M802 292L768 220L710 241Z" fill="#e4e4e4" stroke="#e4e4e4"></path><path d="M716 0L655 0L635 87Z" fill="#dadada" stroke="#dadada"></path><path d="M0 418L0 564L69 520Z" fill="#d4d4d4" stroke="#d4d4d4"></path><path d="M842 410L802 292L767 335Z" fill="#efefef" stroke="#efefef"></path><path d="M767 335L802 292L710 241Z" fill="#e9e9e9" stroke="#e9e9e9"></path><path d="M194 0L111 0L128 107Z" fill="#e9e9e9" stroke="#e9e9e9"></path><path d="M787 187L742 119L768 220Z" fill="#fafafa" stroke="#fafafa"></path><path d="M768 220L742 119L691 129Z" fill="#ffffff" stroke="#ffffff"></path><path d="M666 600L728 600L695 526Z" fill="#d4d4d4" stroke="#d4d4d4"></path><path d="M751 432L842 410L767 335Z" fill="#e9e9e9" stroke="#e9e9e9"></path><path d="M111 0L98 0L128 107Z" fill="#d4d4d4" stroke="#d4d4d4"></path><path d="M807 238L787 187L768 220Z" fill="#e9e9e9" stroke="#e9e9e9"></path><path d="M716 0L635 87L691 129Z" fill="#cfcfcf" stroke="#cfcfcf"></path><path d="M802 292L807 238L768 220Z" fill="#f4f4f4" stroke="#f4f4f4"></path><path d="M0 564L0 600L78 600Z" fill="#cacaca" stroke="#cacaca"></path><path d="M98 0L0 88L93 112Z" fill="#ffffff" stroke="#ffffff"></path><path d="M798 39L768 101L900 105Z" fill="#dadada" stroke="#dadada"></path><path d="M787 187L768 101L742 119Z" fill="#e9e9e9" stroke="#e9e9e9"></path><path d="M742 119L716 0L691 129Z" fill="#f4f4f4" stroke="#f4f4f4"></path><path d="M839 452L751 432L720 492Z" fill="#e9e9e9" stroke="#e9e9e9"></path><path d="M802 292L900 262L807 238Z" fill="#e4e4e4" stroke="#e4e4e4"></path><path d="M846 560L839 452L720 492Z" fill="#e9e9e9" stroke="#e9e9e9"></path><path d="M768 101L716 0L742 119Z" fill="#cfcfcf" stroke="#cfcfcf"></path><path d="M728 600L798 600L720 492Z" fill="#f4f4f4" stroke="#f4f4f4"></path><path d="M98 0L0 0L0 88Z" fill="#fafafa" stroke="#fafafa"></path><path d="M798 600L846 560L720 492Z" fill="#dadada" stroke="#dadada"></path><path d="M900 411L900 358L842 410Z" fill="#cfcfcf" stroke="#cfcfcf"></path><path d="M900 149L768 101L787 187Z" fill="#efefef" stroke="#efefef"></path><path d="M768 101L798 39L716 0Z" fill="#d4d4d4" stroke="#d4d4d4"></path><path d="M900 149L787 187L807 238Z" fill="#e4e4e4" stroke="#e4e4e4"></path><path d="M900 411L842 410L839 452Z" fill="#e9e9e9" stroke="#e9e9e9"></path><path d="M842 410L900 358L802 292Z" fill="#fafafa" stroke="#fafafa"></path><path d="M900 358L900 331L802 292Z" fill="#efefef" stroke="#efefef"></path><path d="M900 538L900 411L839 452Z" fill="#e9e9e9" stroke="#e9e9e9"></path><path d="M900 331L900 262L802 292Z" fill="#d4d4d4" stroke="#d4d4d4"></path><path d="M900 0L804 0L798 39Z" fill="#dadada" stroke="#dadada"></path><path d="M798 39L804 0L716 0Z" fill="#cfcfcf" stroke="#cfcfcf"></path><path d="M900 600L900 538L846 560Z" fill="#dadada" stroke="#dadada"></path><path d="M846 560L900 538L839 452Z" fill="#f4f4f4" stroke="#f4f4f4"></path><path d="M900 262L900 149L807 238Z" fill="#efefef" stroke="#efefef"></path><path d="M900 149L900 105L768 101Z" fill="#efefef" stroke="#efefef"></path><path d="M798 600L900 600L846 560Z" fill="#f4f4f4" stroke="#f4f4f4"></path><path d="M900 105L900 0L798 39Z" fill="#efefef" stroke="#efefef"></path></g></svg>