<svg id="visual" viewBox="0 0 900 600" width="900" height="600" xmlns="http://www.w3.org/2000/svg" xmlns:xlink="http://www.w3.org/1999/xlink" version="1.1"><g stroke-width="1" stroke-linejoin="bevel"><path d="M392 325L302 320L405 363Z" fill="#112e42" stroke="#112e42"></path><path d="M302 320L277 436L405 363Z" fill="#297ea6" stroke="#297ea6"></path><path d="M374 493L462 398L405 363Z" fill="#277297" stroke="#277297"></path><path d="M405 363L515 304L392 325Z" fill="#246688" stroke="#246688"></path><path d="M302 320L202 370L277 436Z" fill="#205a7a" stroke="#205a7a"></path><path d="M277 436L374 493L405 363Z" fill="#081a28" stroke="#081a28"></path><path d="M216 332L202 370L302 320Z" fill="#0c2435" stroke="#0c2435"></path><path d="M166 514L320 522L277 436Z" fill="#205a7a" stroke="#205a7a"></path><path d="M277 436L320 522L374 493Z" fill="#00101c" stroke="#00101c"></path><path d="M374 493L471 476L462 398Z" fill="#15384f" stroke="#15384f"></path><path d="M363 600L471 476L374 493Z" fill="#15384f" stroke="#15384f"></path><path d="M310 170L229 233L302 320Z" fill="#15384f" stroke="#15384f"></path><path d="M302 320L229 233L216 332Z" fill="#19435d" stroke="#19435d"></path><path d="M216 332L132 286L202 370Z" fill="#112e42" stroke="#112e42"></path><path d="M462 398L515 304L405 363Z" fill="#205a7a" stroke="#205a7a"></path><path d="M392 325L310 170L302 320Z" fill="#0c2435" stroke="#0c2435"></path><path d="M591 388L515 304L462 398Z" fill="#205a7a" stroke="#205a7a"></path><path d="M515 304L423 184L392 325Z" fill="#19435d" stroke="#19435d"></path><path d="M423 184L310 170L392 325Z" fill="#205a7a" stroke="#205a7a"></path><path d="M515 304L478 185L423 184Z" fill="#112e42" stroke="#112e42"></path><path d="M427 67L267 107L310 170Z" fill="#297ea6" stroke="#297ea6"></path><path d="M67 171L132 286L229 233Z" fill="#15384f" stroke="#15384f"></path><path d="M229 233L132 286L216 332Z" fill="#1d4e6b" stroke="#1d4e6b"></path><path d="M202 370L166 514L277 436Z" fill="#0c2435" stroke="#0c2435"></path><path d="M104 364L166 514L202 370Z" fill="#246688" stroke="#246688"></path><path d="M236 600L330 600L320 522Z" fill="#246688" stroke="#246688"></path><path d="M320 522L363 600L374 493Z" fill="#081a28" stroke="#081a28"></path><path d="M330 600L363 600L320 522Z" fill="#19435d" stroke="#19435d"></path><path d="M132 286L104 364L202 370Z" fill="#205a7a" stroke="#205a7a"></path><path d="M628 508L591 388L471 476Z" fill="#19435d" stroke="#19435d"></path><path d="M471 476L591 388L462 398Z" fill="#00101c" stroke="#00101c"></path><path d="M515 304L581 217L478 185Z" fill="#277297" stroke="#277297"></path><path d="M166 514L236 600L320 522Z" fill="#15384f" stroke="#15384f"></path><path d="M427 67L310 170L423 184Z" fill="#00101c" stroke="#00101c"></path><path d="M310 170L267 107L229 233Z" fill="#205a7a" stroke="#205a7a"></path><path d="M631 281L581 217L515 304Z" fill="#1d4e6b" stroke="#1d4e6b"></path><path d="M485 86L427 67L423 184Z" fill="#205a7a" stroke="#205a7a"></path><path d="M267 107L186 112L229 233Z" fill="#0c2435" stroke="#0c2435"></path><path d="M132 286L0 273L104 364Z" fill="#112e42" stroke="#112e42"></path><path d="M591 388L631 281L515 304Z" fill="#0c2435" stroke="#0c2435"></path><path d="M363 600L528 600L471 476Z" fill="#0c2435" stroke="#0c2435"></path><path d="M591 388L664 388L631 281Z" fill="#19435d" stroke="#19435d"></path><path d="M485 86L423 184L478 185Z" fill="#205a7a" stroke="#205a7a"></path><path d="M138 0L122 103L186 112Z" fill="#081a28" stroke="#081a28"></path><path d="M580 93L478 185L581 217Z" fill="#297ea6" stroke="#297ea6"></path><path d="M580 93L485 86L478 185Z" fill="#081a28" stroke="#081a28"></path><path d="M104 364L64 503L166 514Z" fill="#1d4e6b" stroke="#1d4e6b"></path><path d="M166 514L70 600L236 600Z" fill="#297ea6" stroke="#297ea6"></path><path d="M528 600L628 508L471 476Z" fill="#00101c" stroke="#00101c"></path><path d="M628 508L664 388L591 388Z" fill="#205a7a" stroke="#205a7a"></path><path d="M186 112L67 171L229 233Z" fill="#081a28" stroke="#081a28"></path><path d="M104 364L0 424L64 503Z" fill="#00101c" stroke="#00101c"></path><path d="M232 0L186 112L267 107Z" fill="#19435d" stroke="#19435d"></path><path d="M186 112L122 103L67 171Z" fill="#205a7a" stroke="#205a7a"></path><path d="M0 273L0 424L104 364Z" fill="#00101c" stroke="#00101c"></path><path d="M528 600L606 600L628 508Z" fill="#081a28" stroke="#081a28"></path><path d="M628 508L680 536L664 388Z" fill="#277297" stroke="#277297"></path><path d="M631 281L671 226L581 217Z" fill="#19435d" stroke="#19435d"></path><path d="M734 328L671 226L631 281Z" fill="#246688" stroke="#246688"></path><path d="M67 171L0 273L132 286Z" fill="#081a28" stroke="#081a28"></path><path d="M671 226L580 93L581 217Z" fill="#277297" stroke="#277297"></path><path d="M489 0L430 0L427 67Z" fill="#112e42" stroke="#112e42"></path><path d="M0 536L70 600L64 503Z" fill="#112e42" stroke="#112e42"></path><path d="M64 503L70 600L166 514Z" fill="#081a28" stroke="#081a28"></path><path d="M427 67L298 0L267 107Z" fill="#246688" stroke="#246688"></path><path d="M430 0L298 0L427 67Z" fill="#297ea6" stroke="#297ea6"></path><path d="M489 0L427 67L485 86Z" fill="#15384f" stroke="#15384f"></path><path d="M0 118L0 213L67 171Z" fill="#112e42" stroke="#112e42"></path><path d="M67 171L0 213L0 273Z" fill="#00101c" stroke="#00101c"></path><path d="M606 600L680 536L628 508Z" fill="#15384f" stroke="#15384f"></path><path d="M664 388L734 328L631 281Z" fill="#205a7a" stroke="#205a7a"></path><path d="M298 0L232 0L267 107Z" fill="#0c2435" stroke="#0c2435"></path><path d="M122 103L0 118L67 171Z" fill="#205a7a" stroke="#205a7a"></path><path d="M0 424L0 536L64 503Z" fill="#246688" stroke="#246688"></path><path d="M580 93L489 0L485 86Z" fill="#00101c" stroke="#00101c"></path><path d="M760 330L734 328L772 436Z" fill="#00101c" stroke="#00101c"></path><path d="M772 436L734 328L664 388Z" fill="#112e42" stroke="#112e42"></path><path d="M734 328L771 197L671 226Z" fill="#277297" stroke="#277297"></path><path d="M709 117L587 0L580 93Z" fill="#112e42" stroke="#112e42"></path><path d="M232 0L138 0L186 112Z" fill="#0c2435" stroke="#0c2435"></path><path d="M0 536L0 600L70 600Z" fill="#15384f" stroke="#15384f"></path><path d="M0 0L0 118L122 103Z" fill="#112e42" stroke="#112e42"></path><path d="M606 600L697 600L680 536Z" fill="#112e42" stroke="#112e42"></path><path d="M680 536L772 436L664 388Z" fill="#205a7a" stroke="#205a7a"></path><path d="M836 515L772 436L680 536Z" fill="#1d4e6b" stroke="#1d4e6b"></path><path d="M709 117L580 93L671 226Z" fill="#15384f" stroke="#15384f"></path><path d="M580 93L587 0L489 0Z" fill="#081a28" stroke="#081a28"></path><path d="M771 197L709 117L671 226Z" fill="#081a28" stroke="#081a28"></path><path d="M760 330L771 197L734 328Z" fill="#112e42" stroke="#112e42"></path><path d="M900 200L771 197L760 330Z" fill="#246688" stroke="#246688"></path><path d="M771 197L769 116L709 117Z" fill="#081a28" stroke="#081a28"></path><path d="M709 117L739 0L587 0Z" fill="#15384f" stroke="#15384f"></path><path d="M138 0L0 0L122 103Z" fill="#112e42" stroke="#112e42"></path><path d="M815 600L836 515L680 536Z" fill="#00101c" stroke="#00101c"></path><path d="M900 403L900 339L760 330Z" fill="#246688" stroke="#246688"></path><path d="M771 197L900 200L769 116Z" fill="#277297" stroke="#277297"></path><path d="M697 600L815 600L680 536Z" fill="#277297" stroke="#277297"></path><path d="M769 116L739 0L709 117Z" fill="#00101c" stroke="#00101c"></path><path d="M900 403L772 436L900 479Z" fill="#15384f" stroke="#15384f"></path><path d="M900 403L760 330L772 436Z" fill="#00101c" stroke="#00101c"></path><path d="M769 116L837 0L739 0Z" fill="#297ea6" stroke="#297ea6"></path><path d="M900 479L772 436L836 515Z" fill="#112e42" stroke="#112e42"></path><path d="M900 600L900 479L836 515Z" fill="#246688" stroke="#246688"></path><path d="M900 339L900 200L760 330Z" fill="#277297" stroke="#277297"></path><path d="M815 600L900 600L836 515Z" fill="#246688" stroke="#246688"></path><path d="M900 67L837 0L769 116Z" fill="#246688" stroke="#246688"></path><path d="M900 200L900 67L769 116Z" fill="#297ea6" stroke="#297ea6"></path><path d="M900 67L900 0L837 0Z" fill="#1d4e6b" stroke="#1d4e6b"></path></g></svg>